# xmcd
#
# Track frame offsets:
#	150
#	17297
#	34762
#	49235
#	65437
#	86200
#	101127
#	114740
#	128217
#	144240
#	157672
#	174835
#	187672
#	205885
#	221509
#	238650
#	255305
#	271295
#
# Disc length: 3798 seconds
#
# Revision: 1
# Processed by: cddbd v1.5.2PL0 Copyright (c) Steve Scherf et al.
# Submitted via: audiograbber 1.83.01
#
DISCID=ec0ed412
DTITLE=Brooks and Dunn - THMPL07
DYEAR=2003
DGENRE=Karaoke
TTITLE0=South Of Santa Fe
TTITLE1=I Can't Get Over You
TTITLE2=Husbands and Wives
TTITLE3=How Long Gone
TTITLE4=Best Of My Love
TTITLE5=Boot Scootin Boogie
TTITLE6=Brand New Man
TTITLE7=Hard Workin Man
TTITLE8=I'll Never Forgive My Heart
TTITLE9=Little Miss Honky Tonk
TTITLE10=Lost and Found
TTITLE11=My Next Broken Heart
TTITLE12=Neon Moon
TTITLE13=Rock My World (Little Country Girl)
TTITLE14=She Used To Be Mine
TTITLE15=She's Not The Cheatin Kind
TTITLE16=That Ain't No Way to Go
TTITLE17=We'll Burn That Bridge
EXTD=
EXTT0=
EXTT1=
EXTT2=
EXTT3=
EXTT4=
EXTT5=
EXTT6=
EXTT7=
EXTT8=
EXTT9=
EXTT10=
EXTT11=
EXTT12=
EXTT13=
EXTT14=
EXTT15=
EXTT16=
EXTT17=
PLAYORDER=
